Coordinates
version=1
nRows=21
nColumns=22
inDegrees=yes

Units are S.I. units (second, meters, Newtons, ...)
If the header above contains a line with 'inDegrees', this indicates whether rotational values are in degrees (yes) or radians (no).

endheader
time	pelvis_tilt	pelvis_list	pelvis_rotation	pelvis_tx	pelvis_ty	pelvis_tz	hip_flexion_r	hip_adduction_r	hip_rotation_r	knee_angle_r	ankle_angle_r	subtalar_angle_r	hip_flexion_l	hip_adduction_l	hip_rotation_l	knee_angle_l	ankle_angle_l	subtalar_angle_l	lumbar_extension	lumbar_bending	lumbar_rotation
      1.39000000	     -1.93722651	     -2.90524812	     -8.75864211	     -1.20946446	      0.92792665	     -0.14246889	     -2.13104202	     -1.60175222	      1.81119514	     -6.40939592	      6.98649147	      7.44610512	     -1.54851917	     -2.05616823	    -13.94649650	    -12.77265172	     12.50057297	      0.55897220	     -0.75006929	     -0.89543630	      1.32456206
      1.40000000	     -2.00669451	     -2.83282094	     -8.59828522	     -1.20845172	      0.92754403	     -0.14390297	     -1.91193346	     -1.74566619	      1.68499906	     -6.82499811	      7.24555662	      7.50772779	     -1.44702847	     -1.90070667	    -13.72062020	    -12.87417937	     12.57921328	      0.34425766	     -0.67643979	     -0.89324216	      1.20037164
      1.41000000	     -2.03385382	     -2.75653471	     -8.43701271	     -1.20737113	      0.92717806	     -0.14541925	     -1.69158275	     -1.90459351	      1.56119323	     -7.34103596	      7.58417892	      7.55174461	     -1.40721088	     -1.72641254	    -13.52011209	    -12.95022639	     12.68425539	      0.18256425	     -0.65049888	     -0.89119901	      1.03378602
      1.42000000	     -2.06473890	     -2.65974987	     -8.25694976	     -1.20631598	      0.92677594	     -0.14702474	     -1.39398937	     -2.08497002	      1.43520724	     -7.99616781	      7.96275657	      7.58770755	     -1.34216816	     -1.52896411	    -13.27725264	    -13.05514001	     12.78126446	     -0.01659011	     -0.62737707	     -0.91218907	      0.86256201
      1.43000000	     -2.11646676	     -2.53618693	     -8.07149457	     -1.20532724	      0.92630729	     -0.14874463	     -0.98869583	     -2.29397527	      1.31937945	     -8.79925354	      8.37022137	      7.60040716	     -1.22688937	     -1.30040294	    -12.99811661	    -13.19885985	     12.86386504	     -0.27254044	     -0.59556983	     -0.94922138	      0.69193089
      1.44000000	     -2.10008604	     -2.40202467	     -7.90000088	     -1.20428628	      0.92586026	     -0.15052154	     -0.57782034	     -2.52648436	      1.22286144	     -9.75717757	      8.87494480	      7.58642917	     -1.21209837	     -1.04363028	    -12.78799760	    -13.29441071	     13.00338625	     -0.43233964	     -0.64642147	     -0.99540052	      0.48343745
      1.45000000	     -2.17742576	     -2.21076534	     -7.71678516	     -1.20337989	      0.92523214	     -0.15236221	      0.06594182	     -2.80180826	      1.13444913	    -10.94161447	      9.37874768	      7.49289345	     -1.04608213	     -0.74001869	    -12.50492522	    -13.45721338	     13.09622606	     -0.73579623	     -0.60187610	     -1.09964170	      0.29190866
      1.46000000	     -2.17778693	     -1.97536839	     -7.54700389	     -1.20246329	      0.92461537	     -0.15421706	      0.72412495	     -3.13213003	      1.08364063	    -12.29902653	      9.97423816	      7.36432095	     -0.97164901	     -0.37546395	    -12.26762902	    -13.59688008	     13.19121637	     -0.93155902	     -0.65375046	     -1.26400894	      0.08525823
      1.47000000	     -2.18234054	     -1.69710899	     -7.39486253	     -1.20164618	      0.92389243	     -0.15608267	      1.52094633	     -3.50159927	      1.06995942	    -13.88480734	     10.58233415	      7.15994275	     -0.87568015	      0.03328322	    -12.06243188	    -13.75234631	     13.31497524	     -1.13911532	     -0.72525465	     -1.47353473	     -0.11826264
      1.48000000	     -2.16233474	     -1.36416456	     -7.26310741	     -1.20087007	      0.92309274	     -0.15789747	      2.41203853	     -3.92022394	      1.11285221	    -15.67901318	     11.19842764	      6.89353854	     -0.79304971	      0.49975973	    -11.88229198	    -13.92416032	     13.43280889	     -1.32193925	     -0.83530816	     -1.75694161	     -0.31979747
      1.49000000	     -2.07747794	     -0.97570777	     -7.15414368	     -1.20015666	      0.92226086	     -0.15964879	      3.35060701	     -4.39039790	      1.23461415	    -17.67322578	     11.82719069	      6.60616399	     -0.76621368	      1.02942664	    -11.71802327	    -14.10986990	     13.53236781	     -1.44629255	     -1.04282614	     -2.12133463	     -0.50881068
      1.50000000	     -2.04603860	     -0.54932698	     -7.08223312	     -1.19949970	      0.92123837	     -0.16130152	      4.48683402	     -4.87605559	      1.38480708	    -19.90702041	     12.29558108	      6.16465933	     -0.67118463	      1.58371520	    -11.63161957	    -14.31214256	     13.69500382	     -1.62850984	     -1.20114839	     -2.52525547	     -0.70532573
      1.51000000	     -1.92628054	     -0.08097546	     -7.03625077	     -1.19887732	      0.92022050	     -0.16282440	      5.62443201	     -5.39055340	      1.61856549	    -22.30394801	     12.70817961	      5.70915169	     -0.65713616	      2.18373603	    -11.56574221	    -14.53906020	     13.85610160	     -1.74985428	     -1.48203363	     -3.00423850	     -0.89737993
      1.52000000	     -1.69749983	      0.41866541	     -7.02434698	     -1.19824354	      0.91925087	     -0.16420800	      6.73305632	     -5.92495789	      1.91034406	    -24.85265283	     13.05734873	      5.29340229	     -0.76989706	      2.82588971	    -11.51195193	    -14.74928792	     14.00108486	     -1.79469274	     -1.90513624	     -3.54476585	     -1.08055294
      1.53000000	     -1.52861444	      0.93492150	     -7.03585842	     -1.19765756	      0.91813018	     -0.16545246	      8.01251717	     -6.43813645	      2.21629884	    -27.57459848	     13.14965226	      4.65680830	     -0.79383854	      3.46079765	    -11.53082715	    -15.00523191	     14.19298984	     -1.90383667	     -2.27113656	     -4.10492730	     -1.30288428
      1.54000000	     -1.24251667	      1.45534779	     -7.07496333	     -1.19702711	      0.91713015	     -0.16654953	      9.22823104	     -6.93896085	      2.55513307	    -30.39717008	     13.15018812	      4.04587981	     -0.96542061	      4.11062096	    -11.54489569	    -15.22823595	     14.36138495	     -1.94093814	     -2.78872486	     -4.69623783	     -1.53259698
      1.55000000	     -0.91018510	      1.96543106	     -7.13520551	     -1.19632998	      0.91619749	     -0.16749663	     10.44822165	     -7.40065619	      2.89764649	    -33.30203486	     13.00123030	      3.36425473	     -1.20665029	      4.74876297	    -11.56933877	    -15.42610048	     14.52081820	     -1.95455587	     -3.36491544	     -5.29094306	     -1.78596990
      1.56000000	     -0.53791425	      2.44459575	     -7.20833981	     -1.19553263	      0.91537420	     -0.16833126	     11.65653761	     -7.80324453	      3.22851984	    -36.24566335	     12.70677988	      2.60320186	     -1.52152111	      5.35804145	    -11.58257365	    -15.58496757	     14.66220417	     -1.94953691	     -3.98978992	     -5.85946058	     -2.05751382
      1.57000000	     -0.12884454	      2.87426119	     -7.28068009	     -1.19459463	      0.91471781	     -0.16906609	     12.82543180	     -8.12168486	      3.55032436	    -39.17610033	     12.28108579	      1.80376299	     -1.91591999	      5.91800198	    -11.57800567	    -15.69555533	     14.76590003	     -1.92272289	     -4.65746571	     -6.37778879	     -2.38192234
      1.58000000	      0.32421864	      3.23117538	     -7.35325562	     -1.19345143	      0.91430805	     -0.16972436	     13.91747942	     -8.32838434	      3.87235344	    -42.03966499	     11.71734207	      1.15206312	     -2.43353722	      6.41677137	    -11.51077171	    -15.69729792	     14.79894504	     -1.85895985	     -5.36927632	     -6.81593949	     -2.73079729
      1.59000000	      0.73811599	      3.48572176	     -7.37392072	     -1.19211035	      0.91402596	     -0.17035329	     14.99393830	     -8.39118749	      4.11006341	    -44.80659845	     11.16997627	      0.26133081	     -2.92377266	      6.78405712	    -11.47027408	    -15.73000964	     14.87861424	     -1.80294383	     -6.03469746	     -7.12473395	     -3.18290123
